<svg id="visual" viewBox="0 0 450 900" width="450" height="900" xmlns="http://www.w3.org/2000/svg" xmlns:xlink="http://www.w3.org/1999/xlink" version="1.1"><path d="M0 643L9.3 644.3C18.7 645.7 37.3 648.3 56.2 638.5C75 628.7 94 606.3 112.8 599.3C131.7 592.3 150.3 600.7 169 594.8C187.7 589 206.3 569 225 565.2C243.7 561.3 262.3 573.7 281.2 593C300 612.3 319 638.7 337.8 642.3C356.7 646 375.3 627 394 610.8C412.7 594.7 431.3 581.3 440.7 574.7L450 568L450 901L440.7 901C431.3 901 412.7 901 394 901C375.3 901 356.7 901 337.8 901C319 901 300 901 281.2 901C262.3 901 243.7 901 225 901C206.3 901 187.7 901 169 901C150.3 901 131.7 901 112.8 901C94 901 75 901 56.2 901C37.3 901 18.7 901 9.3 901L0 901Z" fill="#ffb59f"></path><path d="M0 617L9.3 626.5C18.7 636 37.3 655 56.2 662.2C75 669.3 94 664.7 112.8 661.7C131.7 658.7 150.3 657.3 169 654.7C187.7 652 206.3 648 225 651.5C243.7 655 262.3 666 281.2 676.2C300 686.3 319 695.7 337.8 687.2C356.7 678.7 375.3 652.3 394 650C412.7 647.7 431.3 669.3 440.7 680.2L450 691L450 901L440.7 901C431.3 901 412.7 901 394 901C375.3 901 356.7 901 337.8 901C319 901 300 901 281.2 901C262.3 901 243.7 901 225 901C206.3 901 187.7 901 169 901C150.3 901 131.7 901 112.8 901C94 901 75 901 56.2 901C37.3 901 18.7 901 9.3 901L0 901Z" fill="#e29a84"></path><path d="M0 752L9.3 742.3C18.7 732.7 37.3 713.3 56.2 702.7C75 692 94 690 112.8 699.2C131.7 708.3 150.3 728.7 169 737.3C187.7 746 206.3 743 225 744C243.7 745 262.3 750 281.2 751.5C300 753 319 751 337.8 749C356.7 747 375.3 745 394 736C412.7 727 431.3 711 440.7 703L450 695L450 901L440.7 901C431.3 901 412.7 901 394 901C375.3 901 356.7 901 337.8 901C319 901 300 901 281.2 901C262.3 901 243.7 901 225 901C206.3 901 187.7 901 169 901C150.3 901 131.7 901 112.8 901C94 901 75 901 56.2 901C37.3 901 18.7 901 9.3 901L0 901Z" fill="#c67f69"></path><path d="M0 758L9.3 755.8C18.7 753.7 37.3 749.3 56.2 743.8C75 738.3 94 731.7 112.8 732.3C131.7 733 150.3 741 169 752.5C187.7 764 206.3 779 225 780.2C243.7 781.3 262.3 768.7 281.2 758.7C300 748.7 319 741.3 337.8 747.3C356.7 753.3 375.3 772.7 394 784.5C412.7 796.3 431.3 800.7 440.7 802.8L450 805L450 901L440.7 901C431.3 901 412.7 901 394 901C375.3 901 356.7 901 337.8 901C319 901 300 901 281.2 901C262.3 901 243.7 901 225 901C206.3 901 187.7 901 169 901C150.3 901 131.7 901 112.8 901C94 901 75 901 56.2 901C37.3 901 18.7 901 9.3 901L0 901Z" fill="#aa6550"></path><path d="M0 843L9.3 837.5C18.7 832 37.3 821 56.2 822.8C75 824.7 94 839.3 112.8 847.2C131.7 855 150.3 856 169 847.8C187.7 839.7 206.3 822.3 225 822.7C243.7 823 262.3 841 281.2 846C300 851 319 843 337.8 833C356.7 823 375.3 811 394 808C412.7 805 431.3 811 440.7 814L450 817L450 901L440.7 901C431.3 901 412.7 901 394 901C375.3 901 356.7 901 337.8 901C319 901 300 901 281.2 901C262.3 901 243.7 901 225 901C206.3 901 187.7 901 169 901C150.3 901 131.7 901 112.8 901C94 901 75 901 56.2 901C37.3 901 18.7 901 9.3 901L0 901Z" fill="#8f4c38"></path></svg>